<?xml version="1.0" encoding="utf-8"?>
<!-- Generator: Adobe Illustrator 22.1.0, SVG Export Plug-In . SVG Version: 6.00 Build 0)  -->
<svg version="1.1" id="Layer_1" xmlns="http://www.w3.org/2000/svg" xmlns:xlink="http://www.w3.org/1999/xlink" x="0px" y="0px"
	 viewBox="0 0 388.8 93.6" style="enable-background:new 0 0 388.8 93.6;" xml:space="preserve">
<style type="text/css">
	.st0{fill:#FFFFFF;}
</style>
<g>
	<path class="st0" d="M67.1,80.9c-2,1.3-4.5,2.6-6.9,3.6l22.8,0V61.7c-0.8,2-2.3,5-3.6,6.9L74.8,64c-1.4,2.5-3.3,4.8-5.4,6.9
		c-2.1,2.1-4.5,3.9-6.9,5.4L67.1,80.9z"/>
	<path class="st0" d="M67.4,56.6c-1.2,2.6-2.9,5.1-5.1,7.2s-4.6,3.9-7.3,5.1l6.2,6.2c2.5-1.4,4.8-3.2,7-5.3s3.9-4.5,5.3-7L67.4,56.6
		z"/>
	<path class="st0" d="M81.8,54.8c1.3-5.6,1.3-11.7,0-17.4l-3.1,0c1.4,5.7,1.5,11.8,0,17.4L81.8,54.8z"/>
	<path class="st0" d="M77,54.8c1.5-5.3,1.6-11.7,0-17.4l-8.8,0c2.1,5.6,2.1,11.9,0,17.4L77,54.8z"/>
	<path class="st0" d="M79.4,23.6c1.2,1.8,2.6,4.5,3.6,6.9V7.7l-22.8,0c2.3,0.9,4.5,2.1,6.9,3.6l-4.6,4.6c2.5,1.5,4.7,3.2,6.9,5.4
		c2.2,2.2,3.9,4.4,5.4,6.9L79.4,23.6z"/>
	<path class="st0" d="M55.1,23.3c2.6,1.2,5.1,2.9,7.3,5.1c2.2,2.2,3.7,4.4,5.1,7.2l6.2-6.2c-1.4-2.5-3.2-4.8-5.3-7
		c-2.1-2.1-4.5-3.9-7-5.4L55.1,23.3z"/>
	<path class="st0" d="M53.3,8.9c-5.7-1.3-11.7-1.3-17.4,0l0,3.1c5.7-1.4,11.7-1.4,17.4,0V8.9z"/>
	<path class="st0" d="M53.3,13.7c-5.7-1.5-11.7-1.5-17.4,0v8.8c5.6-2.1,11.8-2.1,17.4,0L53.3,13.7z"/>
	<path class="st0" d="M14.3,28.2c1.5-2.5,3.2-4.8,5.4-6.9c2.1-2.1,4.5-3.9,6.9-5.4l-4.5-4.5c2.2-1.4,4.5-2.6,6.9-3.6l-22.8,0v22.8
		c1-2.4,2.2-4.7,3.6-6.9L14.3,28.2z"/>
	<path class="st0" d="M27.9,17.1c-2.5,1.4-4.9,3.2-7,5.3c-2.1,2.1-3.9,4.5-5.3,7l6.2,6.2c1.2-2.6,2.9-5.1,5-7.2
		c2.2-2.2,4.6-3.8,7.3-5.1L27.9,17.1z"/>
	<path class="st0" d="M12.2,37.4c-1.5,5.7-1.5,11.7,0,17.4l8.8,0C19,49.2,19,43,21,37.4L12.2,37.4z"/>
	<path class="st0" d="M7.4,37.4c-1.3,5.7-1.3,11.7,0,17.4h3.1c-1.4-5.7-1.4-11.6,0-17.4L7.4,37.4z"/>
	<path class="st0" d="M9.8,68.6c-1.4-2.2-2.6-4.5-3.6-6.9v22.8l22.8,0c-2.4-1-4.7-2.2-6.9-3.6l4.6-4.5c-2.5-1.5-4.8-3.2-6.9-5.4
		c-2.1-2.1-3.9-4.5-5.4-6.9L9.8,68.6z"/>
	<path class="st0" d="M15.6,62.8c1.4,2.5,3.2,4.8,5.3,7c2.1,2.1,4.5,3.9,7,5.3l6.2-6.2c-2.6-1.2-5.1-2.9-7.3-5
		c-2.2-2.2-3.8-4.6-5-7.3L15.6,62.8z"/>
	<path class="st0" d="M35.9,69.7c5.6,2.1,11.8,2,17.4,0v8.8c-5.7,1.6-11.7,1.5-17.4,0L35.9,69.7L35.9,69.7z"/>
	<path class="st0" d="M35.9,80.2c5.7,1.4,11.7,1.5,17.4,0v3.1c-5.7,1.3-11.7,1.3-17.4,0L35.9,80.2z"/>
</g>
<path class="st0" d="M100.9,7.4h11.7l38.5,53.5V7.4h12.4v77.3H153l-39.7-55v55h-12.4L100.9,7.4L100.9,7.4z"/>
<path class="st0" d="M199.4,45.8h10.9c9.4,0,15.3-5.1,15.3-12.9v-0.2c0-8.3-5.7-12.8-15.4-12.8h-19v64.9h-13.1V7.4h33.2
	c9.4,0,16.7,2.9,21.5,7.7c3.9,4.2,6.2,9.9,6.2,16.7v0.2c0,12.7-7.3,20.3-17.8,23.4l20.1,29.3h-15.4L199.4,45.8z"/>
<path class="st0" d="M252.5,7.4h58.9v12.1h-44.1v20.1h36v12.1h-36v20.8H312v12.1h-59.4V7.4z"/>
<path class="st0" d="M327.2,7.4H342v64.9h40.8v12.4h-55.5V7.4z"/>
</svg>
